Coordinates
version=1
nRows=21
nColumns=22
inDegrees=yes

Units are S.I. units (second, meters, Newtons, ...)
If the header above contains a line with 'inDegrees', this indicates whether rotational values are in degrees (yes) or radians (no).

endheader
time	pelvis_tilt	pelvis_list	pelvis_rotation	pelvis_tx	pelvis_ty	pelvis_tz	hip_flexion_r	hip_adduction_r	hip_rotation_r	knee_angle_r	ankle_angle_r	subtalar_angle_r	hip_flexion_l	hip_adduction_l	hip_rotation_l	knee_angle_l	ankle_angle_l	subtalar_angle_l	lumbar_extension	lumbar_bending	lumbar_rotation
      1.96000000	      2.22533162	     -3.19417011	    -37.16552299	      0.91391568	      0.88328428	      0.13117218	     -4.95758853	      9.61155026	      1.87336145	    -18.52342617	     22.27358207	    -15.39863069	     29.43400419	     -5.68452543	     13.35727875	    -42.75115551	      4.82501308	     -0.21635089	     -9.14895027	     -0.58404269	      5.06500976
      1.97000000	      2.27349753	     -3.13436548	    -38.23864550	      0.92051486	      0.88259424	      0.13619569	     -5.55740064	      9.29183080	      2.66534826	    -18.63916461	     22.61350167	    -15.10947077	     29.24349149	     -5.69631723	     13.67590059	    -39.70363895	      4.33563950	      0.61070197	     -9.09778186	     -0.75389127	      5.36399259
      1.98000000	      2.34416026	     -3.06859471	    -39.32248701	      0.92715879	      0.88191596	      0.14127405	     -6.16664366	      8.92615742	      3.43160839	    -18.75833450	     22.94733627	    -14.79954211	     28.93061127	     -5.70173039	     14.05321096	    -36.59269417	      3.65899421	      1.60687991	     -9.04800915	     -0.95159828	      5.68545776
      1.99000000	      2.43655785	     -3.00181075	    -40.43970242	      0.93380674	      0.88124712	      0.14644877	     -6.76974736	      8.52051102	      4.20037320	    -18.91292087	     23.28496924	    -14.47687433	     28.51035484	     -5.72780564	     14.45126835	    -33.46364567	      2.78786281	      2.69268321	     -9.00336143	     -1.17651760	      6.04357436
      2.00000000	      2.51079128	     -2.94557001	    -41.55406944	      0.94050595	      0.88055606	      0.15170301	     -7.36746106	      8.11526662	      4.93558036	    -19.04993853	     23.58243521	    -14.11056486	     28.05149650	     -5.79500960	     14.89466248	    -30.38760254	      1.64825918	      3.92925882	     -8.93127686	     -1.38739557	      6.43299425
      2.01000000	      2.61361200	     -2.88258640	    -42.71800080	      0.94721706	      0.87989203	      0.15713968	     -7.97725074	      7.66159343	      5.71099752	    -19.19714111	     23.90835650	    -13.77112119	     27.51716602	     -5.89991799	     15.25594705	    -27.38788000	      0.42947780	      5.00735302	     -8.85500548	     -1.64626516	      6.88802123
      2.02000000	      2.71169394	     -2.82016867	    -43.90500161	      0.95391787	      0.87921922	      0.16268270	     -8.54502051	      7.19480969	      6.50372386	    -19.40305386	     24.21564906	    -13.43821073	     26.98150796	     -6.05213221	     15.52607758	    -24.54321442	     -0.94157695	      5.96164304	     -8.76118066	     -1.91413895	      7.34663189
      2.03000000	      2.78505798	     -2.77625043	    -45.07898705	      0.96069362	      0.87855204	      0.16833070	     -9.12126414	      6.73949942	      7.25958077	    -19.56893482	     24.46687424	    -13.07427199	     26.47532279	     -6.25457365	     15.71150389	    -21.90895275	     -2.40993816	      6.88769295	     -8.63689714	     -2.15581564	      7.83493928
      2.04000000	      2.85449399	     -2.71232632	    -46.27998693	      0.96748369	      0.87787618	      0.17409021	     -9.64470910	      6.24896414	      8.01957178	    -19.78457644	     24.71330739	    -12.75897802	     26.01274329	     -6.47923194	     15.68586606	    -19.51662357	     -3.81264876	      7.49799337	     -8.47281937	     -2.42495194	      8.35839617
      2.05000000	      2.89649575	     -2.66095010	    -47.44657229	      0.97438855	      0.87721327	      0.17989812	    -10.16664934	      5.76933813	      8.74590924	    -19.96665181	     24.88779928	    -12.41159582	     25.61642435	     -6.72269678	     15.51210415	    -17.41097623	     -5.14151590	      7.98980235	     -8.27433562	     -2.65866600	      8.86374390
      2.06000000	      2.92581705	     -2.58529437	    -48.61692610	      0.98133842	      0.87652908	      0.18576793	    -10.62449656	      5.26590901	      9.47982113	    -20.19884409	     25.03557319	    -12.10839389	     25.29884870	     -6.95753104	     15.10109602	    -15.61049427	     -6.26223058	      8.18526780	     -8.02818444	     -2.90515623	      9.35918347
      2.07000000	      2.93029776	     -2.50177494	    -49.75726491	      0.98839870	      0.87583086	      0.19166178	    -11.04632830	      4.76266133	     10.19933215	    -20.43649778	     25.12397960	    -11.81456727	     25.06835497	     -7.17528816	     14.52973255	    -14.14048289	     -7.18517909	      8.19090708	     -7.73922186	     -3.12942765	      9.83396734
      2.08000000	      2.90755908	     -2.40760307	    -50.85776659	      0.99558473	      0.87510485	      0.19755576	    -11.42675596	      4.26707708	     10.92110040	    -20.68506374	     25.15239646	    -11.54502924	     24.93466754	     -7.36237324	     13.85636939	    -13.01924282	     -7.92030158	      8.04871951	     -7.40669668	     -3.32722270	     10.26441819
      2.09000000	      2.87255356	     -2.32969013	    -51.92329527	      1.00288988	      0.87438926	      0.20344907	    -11.78621227	      3.78748298	     11.63703790	    -20.96938284	     25.12098099	    -11.25448044	     24.85017920	     -7.52395457	     13.16961775	    -12.23287837	     -8.49729371	      7.77581055	     -7.07396766	     -3.48927944	     10.67215707
      2.10000000	      2.79178883	     -2.26793548	    -52.93741448	      1.01033142	      0.87364392	      0.20931014	    -12.09803738	      3.35840453	     12.32832805	    -21.29794646	     25.02004732	    -10.99808509	     24.83493443	     -7.67645185	     12.61309588	    -11.76765506	     -9.03259941	      7.44743178	     -6.72236012	     -3.58057659	     11.05711551
      2.11000000	      2.72005864	     -2.19404613	    -53.89848517	      1.01800338	      0.87287839	      0.21519780	    -12.41340187	      2.90924169	     13.01029554	    -21.61535988	     24.84628671	    -10.57073687	     24.88337965	     -7.75099077	     12.19920171	    -11.66829670	     -9.39467357	      6.82475093	     -6.35398067	     -3.67206692	     11.39842071
      2.12000000	      2.59517840	     -2.14968725	    -54.80214735	      1.02583554	      0.87206669	      0.22104386	    -12.68428835	      2.53783575	     13.69562844	    -21.99685813	     24.63496025	    -10.25752094	     24.98495364	     -7.82639850	     12.06783028	    -11.86807977	     -9.82783079	      6.39863942	     -5.98694972	     -3.66655572	     11.66874413
      2.13000000	      2.45050845	     -2.15841646	    -55.61717139	      1.03392916	      0.87128735	      0.22690429	    -13.01375112	      2.22061985	     14.32311480	    -22.34153909	     24.30021999	    -10.06076141	     25.06672325	     -7.87135052	     12.35001169	    -12.31375992	    -10.30735413	      6.15156799	     -5.65878923	     -3.58950781	     11.88237608
      2.14000000	      2.23166278	     -2.15499689	    -56.42314529	      1.04220699	      0.87030177	      0.23276865	    -13.22234926	      1.95691145	     14.91228014	    -22.81010941	     24.00069665	     -9.53115028	     25.31224558	     -7.91296315	     12.74446333	    -13.18736673	    -10.49471243	      5.73415003	     -5.27674355	     -3.42584606	     12.11647079
      2.15000000	      2.01402542	     -2.22298515	    -57.13327134	      1.05084310	      0.86937044	      0.23867237	    -13.54299194	      1.73116730	     15.41878698	    -23.21312519	     23.57364452	     -9.10351423	     25.48430055	     -7.90441810	     13.49428176	    -14.24185615	    -10.60217965	      5.67001038	     -4.96687064	     -3.18847151	     12.23865343
      2.16000000	      1.75816883	     -2.30606234	    -57.82283472	      1.05973092	      0.86833435	      0.24465693	    -13.83328313	      1.53233180	     15.83038348	    -23.66580676	     23.08018443	     -8.58478695	     25.67797514	     -7.88053362	     14.36902574	    -15.51847345	    -10.43623365	      5.92940509	     -4.64660501	     -2.88584602	     12.37892297
